<?xml version="1.0" standalone="no"?>
<!DOCTYPE svg PUBLIC "-//W3C//DTD SVG 20010904//EN"
 "http://www.w3.org/TR/2001/REC-SVG-20010904/DTD/svg10.dtd">
<svg version="1.0" xmlns="http://www.w3.org/2000/svg"
 width="426.000000pt" height="218.000000pt" viewBox="0 0 426.000000 218.000000"
 preserveAspectRatio="xMidYMid meet">

<g transform="translate(0.000000,218.000000) scale(0.100000,-0.100000)"
fill="#000000" stroke="none">
<path d="M0 1090 l0 -1090 2130 0 2130 0 0 1090 0 1090 -2130 0 -2130 0 0
-1090z m1770 -174 c0 -15 -18 -31 -26 -23 -7 7 7 37 17 37 5 0 9 -6 9 -14z
m460 -6 c0 -11 -4 -20 -9 -20 -11 0 -22 26 -14 34 12 12 23 5 23 -14z m194 4
c9 -22 -3 -32 -14 -14 -12 19 -12 30 -1 30 5 0 12 -7 15 -16z m57 0 c12 -14
14 -14 26 2 15 21 26 14 17 -10 -8 -22 -37 -20 -59 4 -10 11 -13 20 -8 20 6 0
16 -7 24 -16z m-630 -37 c-8 -8 -11 -5 -11 9 0 27 14 41 18 19 2 -9 -1 -22 -7
-28z m61 28 c0 -5 -5 -11 -10 -13 -5 -1 -9 4 -9 13 0 9 4 14 9 13 5 -2 10 -8
10 -13z m48 0 c0 -8 -4 -15 -10 -15 -5 0 -10 7 -10 15 0 8 5 15 10 15 6 0 10
-7 10 -15z m40 5 c0 -5 -5 -10 -11 -10 -5 0 -7 5 -4 10 3 6 8 10 11 10 2 0 4
-4 4 -10z m130 -11 c0 -5 -4 -9 -10 -9 -5 0 -10 7 -10 16 0 8 5 12 10 9 6 -3
10 -10 10 -16z m44 6 c-7 -16 -24 -21 -24 -6 0 8 7 13 27 20 1 1 0 -6 -3 -14z
m92 -12 c-10 -10 -19 5 -10 18 6 11 8 11 12 0 2 -7 1 -15 -2 -18z m49 17 c3
-5 1 -10 -4 -10 -6 0 -11 5 -11 10 0 6 2 10 4 10 3 0 8 -4 11 -10z m-235 -10
c0 -5 -4 -10 -10 -10 -5 0 -10 5 -10 10 0 6 5 10 10 10 6 0 10 -4 10 -10z
m-43 -6 c-3 -3 -12 -4 -19 -1 -8 3 -5 6 6 6 11 1 17 -2 13 -5z m-425 -179 c-4
-67 -12 -105 -23 -105 -5 0 -9 9 -9 20 0 16 -7 20 -30 20 -19 0 -33 -7 -40
-20 -6 -11 -17 -20 -25 -20 -10 0 5 29 42 80 68 93 89 100 85 25z m196 0 l15
-50 12 49 c6 27 16 51 23 54 15 5 15 -1 -4 -87 -10 -42 -21 -71 -29 -71 -7 0
-18 21 -25 48 -20 71 -23 72 -41 12 -11 -36 -23 -56 -34 -58 -10 -2 -15 0 -12
5 3 4 15 41 27 81 26 88 45 93 68 17z m157 48 c-32 -5 -45 -18 -45 -45 0 -13
8 -18 28 -19 l27 -1 -30 -7 c-25 -5 -31 -12 -33 -38 -3 -29 -1 -32 30 -36 23
-3 17 -4 -20 -5 -46 -2 -53 0 -48 16 3 9 10 45 17 80 l12 62 46 -1 c34 -2 38
-3 16 -6z m76 -32 c10 -47 16 -47 24 -2 8 48 32 55 41 14 12 -55 17 -58 26
-15 12 56 31 56 23 -1 -13 -87 -21 -112 -37 -115 -12 -2 -18 9 -23 45 l-8 48
-14 -47 c-19 -64 -39 -62 -48 5 -3 28 -9 65 -12 81 -4 21 -2 27 8 24 8 -3 16
-19 20 -37z m253 4 c5 -26 12 -35 26 -35 16 0 20 7 20 35 0 39 17 47 25 13 18
-79 21 -137 9 -142 -13 -5 -18 7 -26 59 -2 12 -12 21 -27 23 -22 3 -23 2 -16
-37 5 -32 4 -41 -8 -41 -17 0 -27 41 -27 111 0 57 15 65 24 14z m195 16 c10
-10 24 -42 31 -71 12 -49 11 -54 -6 -67 -24 -17 -54 -17 -81 2 -16 11 -23 30
-28 70 -4 30 -5 61 -1 70 8 21 62 19 85 -4z m137 -3 c25 -26 21 -51 -11 -62
-16 -6 -32 -11 -34 -13 -2 -1 1 -16 7 -32 11 -31 0 -52 -15 -29 -12 19 -43
120 -43 142 0 16 6 18 41 13 23 -3 48 -11 55 -19z m87 15 c-39 -8 -26 -62 16
-64 24 -2 24 -2 3 -6 -17 -3 -22 -9 -17 -21 4 -9 10 -25 12 -34 4 -13 16 -18
39 -18 19 0 34 -4 34 -10 0 -5 -20 -10 -44 -10 l-44 0 -25 68 c-14 37 -28 75
-32 85 -6 15 -1 17 36 16 24 -1 34 -4 22 -6z m-2250 -465 c-29 -29 -56 -49
-60 -45 -9 10 77 97 96 97 9 0 -6 -21 -36 -52z m342 42 c-3 -5 -10 -10 -16
-10 -5 0 -9 5 -9 10 0 6 7 10 16 10 8 0 12 -4 9 -10z m-221 -15 c3 -9 0 -15
-8 -15 -18 0 -49 -37 -41 -49 4 -7 -4 -11 -19 -11 -29 0 -33 12 -11 30 8 7 15
18 15 25 0 6 10 17 23 23 30 15 34 14 41 -3z m1229 -2 c-7 -2 -19 -2 -25 0 -7
3 -2 5 12 5 14 0 19 -2 13 -5z m315 -45 l-3 -52 -44 -3 c-42 -3 -81 16 -81 38
0 18 33 39 61 39 17 0 32 6 35 15 4 8 13 15 21 15 11 0 13 -12 11 -52z m402
37 c-10 -12 -10 -15 1 -15 10 0 10 -3 2 -11 -7 -7 -9 -25 -6 -41 5 -26 3 -29
-13 -26 -11 2 -20 13 -22 28 -2 14 -10 29 -18 33 -20 11 14 47 44 47 21 0 22
-2 12 -15z m370 5 c0 -5 -7 -10 -15 -10 -8 0 -15 5 -15 10 0 6 7 10 15 10 8 0
15 -4 15 -10z m240 0 c0 -5 -7 -10 -15 -10 -8 0 -15 5 -15 10 0 6 7 10 15 10
8 0 15 -4 15 -10z m113 -48 c26 -47 27 -52 10 -52 -16 0 -39 33 -71 103 -3 5
4 7 14 5 11 -2 32 -27 47 -56z m-2482 20 c-25 -36 -50 -57 -57 -49 -9 9 47 77
63 77 11 0 10 -6 -6 -28z m136 21 c14 -6 11 -9 -17 -14 -31 -6 -33 -7 -12 -14
12 -4 22 -11 22 -16 0 -25 -92 -40 -106 -18 -5 9 3 10 30 5 23 -4 36 -3 36 4
0 5 -9 10 -20 10 -27 0 -25 24 3 38 27 13 40 14 64 5z m267 -11 c3 -5 -3 -21
-12 -37 -15 -24 -25 -29 -61 -31 -30 -2 -44 2 -48 13 -8 20 14 33 55 33 17 0
32 5 32 11 0 7 -11 8 -31 4 -22 -5 -29 -4 -25 4 8 13 82 15 90 3z m270 2 c42
-16 -5 -74 -59 -74 -22 0 -38 -6 -41 -15 -7 -17 -34 -21 -34 -5 0 5 10 30 22
55 20 41 25 45 59 45 21 0 44 -3 53 -6z m150 0 c32 -12 17 -34 -23 -34 -40 0
-62 -14 -38 -23 7 -3 26 -3 43 0 22 3 26 2 14 -6 -30 -21 -100 -11 -100 15 0
37 60 65 104 48z m123 -17 c-15 -6 -30 -21 -33 -34 -4 -14 -14 -23 -25 -23
-22 0 -22 -2 -8 39 10 28 15 31 52 30 41 -1 41 -1 14 -12z m88 -19 c-7 -33
-23 -51 -36 -42 -6 4 -4 27 7 62 2 6 11 12 19 12 13 0 15 -6 10 -32z m160 2
c0 -52 -103 -67 -113 -17 -6 32 18 48 67 45 41 -3 46 -5 46 -28z m446 20 c39
-22 16 -70 -34 -70 -56 0 -86 37 -55 68 15 15 63 16 89 2z m403 4 c30 -12 16
-25 -19 -18 -27 5 -35 3 -35 -9 0 -8 7 -20 16 -28 12 -10 20 -10 35 -1 21 13
43 7 34 -9 -10 -15 -79 -10 -103 7 -52 36 6 83 72 58z m111 -30 c19 -45 19
-44 -3 -44 -11 0 -22 12 -30 33 -15 43 -15 47 3 47 8 0 22 -16 30 -36z m87 9
l28 -27 0 27 c0 20 5 27 20 27 21 0 25 -16 14 -57 -9 -34 -35 -28 -79 17 -43
44 -28 56 17 13z m157 -7 c25 -39 26 -46 7 -46 -8 0 -23 16 -35 36 -25 42 -25
44 -7 44 8 0 24 -15 35 -34z m281 19 c7 -8 17 -15 22 -15 6 0 8 7 4 15 -3 10
1 15 13 15 10 0 24 -7 31 -15 16 -20 30 -19 30 1 0 27 24 9 34 -24 14 -49 0
-53 -51 -16 -20 15 -21 14 -16 -5 9 -34 -27 -25 -76 19 -35 32 -40 40 -24 40
12 0 26 -7 33 -15z m270 5 c10 -5 28 -23 39 -38 l20 -29 -47 -1 c-48 -1 -97
21 -87 38 4 6 15 10 26 10 10 0 19 5 19 11 0 7 -11 8 -30 4 -19 -4 -30 -3 -30
4 0 14 65 14 90 1z m130 -1 c0 -4 -6 -9 -12 -12 -9 -3 -8 -10 6 -26 21 -24 14
-41 -11 -25 -9 6 -27 24 -40 41 l-23 30 40 0 c22 0 40 -3 40 -8z m67 -55 c-3
-3 -12 -4 -19 -1 -8 3 -5 6 6 6 11 1 17 -2 13 -5z m-3524 -104 c5 -4 -4 -17
-19 -29 -20 -16 -41 -21 -87 -21 l-61 0 34 35 c32 33 37 35 80 29 25 -3 49
-10 53 -14z m223 -15 c-4 -11 1 -15 19 -15 14 0 25 -4 25 -10 0 -5 -23 -10
-51 -10 -51 0 -53 3 -26 38 14 17 40 15 33 -3z m328 -9 c-6 -16 -34 -30 -42
-21 -8 7 19 35 34 35 7 0 11 -6 8 -14z m-444 -6 c18 -11 18 -11 -42 -14 -54
-2 -58 1 -25 14 29 12 49 12 67 0z m1682 -5 c0 -5 -5 -11 -11 -13 -6 -2 -11 4
-11 13 0 9 5 15 11 13 6 -2 11 -8 11 -13z m183 6 c7 -12 -12 -24 -25 -16 -11
7 -4 25 10 25 5 0 11 -4 15 -9z m1075 -1 c0 -5 -7 -10 -15 -10 -8 0 -15 5 -15
10 0 6 7 10 15 10 8 0 15 -4 15 -10z m85 0 c3 -5 -3 -10 -14 -10 -12 0 -21 5
-21 10 0 6 6 10 14 10 8 0 18 -4 21 -10z m165 0 c0 -5 -7 -10 -15 -10 -8 0
-15 5 -15 10 0 6 7 10 15 10 8 0 15 -4 15 -10z m-2875 -10 c4 -6 -7 -10 -27
-10 -25 0 -29 3 -18 10 19 13 37 13 45 0z"/>
<path d="M1561 702 c-26 -37 -26 -42 -2 -42 14 0 21 9 26 31 9 42 1 46 -24 11z"/>
<path d="M2426 751 c-9 -14 14 -110 30 -126 15 -15 44 -10 44 7 0 20 -23 104
-33 116 -11 14 -33 16 -41 3z"/>
<path d="M2560 748 c0 -33 14 -58 31 -58 27 0 33 18 15 45 -17 26 -46 34 -46
13z"/>
<path d="M2051 281 c-19 -12 -6 -41 19 -41 16 0 21 5 18 22 -3 25 -17 32 -37
19z"/>
<path d="M1085 260 c-3 -5 3 -10 14 -10 11 0 23 5 26 10 3 6 -3 10 -14 10 -11
0 -23 -4 -26 -10z"/>
<path d="M1370 269 c-11 -19 -9 -20 17 -17 17 2 29 10 31 21 5 25 -35 22 -48
-4z"/>
<path d="M1545 290 c-3 -5 3 -10 15 -10 12 0 18 5 15 10 -3 6 -10 10 -15 10
-5 0 -12 -4 -15 -10z"/>
<path d="M1890 275 c-6 -8 -9 -19 -5 -25 10 -16 42 -12 49 6 12 32 -21 47 -44
19z"/>
<path d="M2351 276 c-9 -11 -8 -18 5 -31 15 -15 18 -15 32 -1 13 12 13 18 2
30 -15 20 -24 20 -39 2z"/>
<path d="M3690 250 c0 -5 7 -10 15 -10 8 0 15 5 15 10 0 6 -7 10 -15 10 -8 0
-15 -4 -15 -10z"/>
<path d="M298 119 c-25 -14 -22 -29 5 -29 23 0 72 29 50 30 -6 0 -17 2 -25 5
-7 2 -21 0 -30 -6z"/>
</g>
</svg>
